# xmcd CD database file
#
# Track frame offsets:
#	150
#	13269
#	27756
#	40509
#	56691
#	69255
#	81730
#	95737
#	110654
#	124100
#	139500
#	158413
#	175421
#	186480
#	196131
#	206074
#	216833
#	231572
#	248020
#	265250
#
# Disc length: 3732 seconds
#
# Revision: 0
# Processed by: cddbd v1.5.2PL0 Copyright (c) Steve Scherf et al.
# Submitted via: CDex 1.70beta2
#
DISCID=240e9214
DTITLE=Bud Powell - Bebop Story Vol. 2 1949-51 CD 052
DYEAR=2008
DGENRE=Jazz
TTITLE0=All God's Children Got Rhythm
TTITLE1=So Sorry Please
TTITLE2=Get Happy
TTITLE3=Sometimes I'm Happy
TTITLE4=Sweet Georgia Brown
TTITLE5=Yesterdays
TTITLE6=April In Paris
TTITLE7=Body And Soul
TTITLE8=Hallelujah
TTITLE9=Tea For Two
TTITLE10=Tea For Two
TTITLE11=Tea For Two
TTITLE12=Parisian Thoroughfare
TTITLE13=Oblivion
TTITLE14=Dusk In Sandi
TTITLE15=Hallucinations (Budo)
TTITLE16=The Fruit
TTITLE17=A NightingaleSang In Berkeley Square
TTITLE18=Just One Of Those Things
TTITLE19=The Last Time I Saw Paris
EXTD=YEAR: 2008
EXTT0=
EXTT1=
EXTT2=
EXTT3=
EXTT4=
EXTT5=
EXTT6=
EXTT7=
EXTT8=
EXTT9=
EXTT10=
EXTT11=
EXTT12=
EXTT13=
EXTT14=
EXTT15=
EXTT16=
EXTT17=
EXTT18=
EXTT19=
PLAYORDER=
